<svg xmlns="http://www.w3.org/2000/svg" version="1.1" xmlns:xlink="http://www.w3.org/1999/xlink" xmlns:svgjs="http://svgjs.com/svgjs" width="1920" height="1080" preserveAspectRatio="none" viewBox="0 0 1920 1080"><g mask="url(&quot;#SvgjsMask1012&quot;)" fill="none"><rect width="1920" height="1080" x="0" y="0" fill="rgba(19, 22, 24, 1)"></rect><path d="M0,687.556C133.38,683.465,272.232,670.055,380.371,591.869C486.105,515.422,515.907,378.175,582.824,266.167C659.695,137.497,826.245,32.615,802.942,-115.446C779.578,-263.898,592.075,-317.004,476.015,-412.47C381.017,-490.612,299.087,-582.872,183.507,-624.968C62.859,-668.91,-65.729,-675.643,-192.618,-655.996C-333.555,-634.174,-477.031,-600.338,-584.091,-506.118C-698.772,-405.191,-768.859,-264.039,-806.285,-115.926C-846.584,43.557,-885.367,224.119,-804.856,367.566C-725.171,509.541,-546.958,555.522,-395.668,615.671C-268.529,666.218,-136.755,691.75,0,687.556" fill="#0c0e10"></path><path d="M1920 1776.176C2066.583 1772.089 2214.745 1805.598 2350.176 1749.368 2500.376 1687.0059999999999 2653.948 1593.935 2718.476 1444.652 2782.73 1296.003 2732.031 1125.305 2687.192 969.694 2646.966 830.093 2554.198 720.915 2474.861 599.21 2381.596 456.139 2344.058 241.96799999999996 2180.582 192.53999999999996 2017.304 143.17200000000003 1874.705 320.28 1711.013 368.25699999999995 1547.2069999999999 416.26800000000003 1316.5030000000002 332.74699999999996 1220.546 473.91999999999996 1121.12 620.196 1309.425 813.5889999999999 1288.908 989.263 1269.292 1157.227 1067.512 1286.992 1106.368 1451.5729999999999 1144.591 1613.4740000000002 1319.617 1712.149 1474.127 1773.7910000000002 1615.027 1830.004 1768.3600000000001 1780.404 1920 1776.176" fill="#1a1e20"></path></g><defs><mask id="SvgjsMask1012"><rect width="1920" height="1080" fill="#ffffff"></rect></mask></defs></svg>